<svg width="48" height="48" viewBox="0 0 48 48" fill="none" xmlns="http://www.w3.org/2000/svg">
<g filter="url(#filter0_d_102_1493)">
<circle cx="22" cy="20" r="20" fill="#202020"/>
</g>
<path d="M31.5999 21.8192H23.8221V29.597C23.8221 30.0095 23.6582 30.4052 23.3665 30.6969C23.0748 30.9886 22.6791 31.1525 22.2666 31.1525C21.854 31.1525 21.4584 30.9886 21.1666 30.6969C20.8749 30.4052 20.711 30.0095 20.711 29.597V21.8192H12.9332C12.5207 21.8192 12.125 21.6553 11.8333 21.3636C11.5416 21.0719 11.3777 20.6762 11.3777 20.2636C11.3777 19.8511 11.5416 19.4554 11.8333 19.1637C12.125 18.872 12.5207 18.7081 12.9332 18.7081H20.711V10.9303C20.711 10.5178 20.8749 10.1221 21.1666 9.83037C21.4584 9.53864 21.854 9.37476 22.2666 9.37476C22.6791 9.37476 23.0748 9.53864 23.3665 9.83037C23.6582 10.1221 23.8221 10.5178 23.8221 10.9303V18.7081H31.5999C32.0125 18.7081 32.4081 18.872 32.6999 19.1637C32.9916 19.4554 33.1555 19.8511 33.1555 20.2636C33.1555 20.6762 32.9916 21.0719 32.6999 21.3636C32.4081 21.6553 32.0125 21.8192 31.5999 21.8192Z" fill="white"/>
<defs>
<filter id="filter0_d_102_1493" x="0" y="0" width="48" height="48" filterUnits="userSpaceOnUse" color-interpolation-filters="sRGB">
<feFlood flood-opacity="0" result="BackgroundImageFix"/>
<feColorMatrix in="SourceAlpha" type="matrix" values="0 0 0 0 0 0 0 0 0 0 0 0 0 0 0 0 0 0 127 0" result="hardAlpha"/>
<feOffset dx="2" dy="4"/>
<feGaussianBlur stdDeviation="2"/>
<feComposite in2="hardAlpha" operator="out"/>
<feColorMatrix type="matrix" values="0 0 0 0 0 0 0 0 0 0 0 0 0 0 0 0 0 0 0.25 0"/>
<feBlend mode="normal" in2="BackgroundImageFix" result="effect1_dropShadow_102_1493"/>
<feBlend mode="normal" in="SourceGraphic" in2="effect1_dropShadow_102_1493" result="shape"/>
</filter>
</defs>
</svg>
