<svg width="223" height="34" viewBox="0 0 223 34" fill="none" xmlns="http://www.w3.org/2000/svg">
<path d="M12.96 10.4619V11.6045H0.948242V10.4619H6.25098V7.35645H7.64258V10.4619H12.96ZM7.65723 2.50781C7.65723 4.51465 9.92773 6.30176 12.4326 6.69727L11.876 7.7959C9.75928 7.39307 7.80371 6.1626 6.9541 4.44141C6.09717 6.18457 4.15625 7.45166 2.07617 7.85449L1.50488 6.75586C3.95117 6.3457 6.20703 4.51465 6.20703 2.50781V2.39062H1.94434V1.24805H11.9199V2.39062H7.65723V2.50781ZM24.4004 0.779297V1.77539C24.4004 2.80811 24.4004 3.97998 24.0635 5.56934H25.9238V6.71191H13.9121V5.56934H22.6572C23.0088 4.03857 23.0234 2.91797 23.0234 1.92188H15.4209V0.779297H24.4004ZM24.415 8.38184V13.084H15.377V8.38184H24.415ZM16.7393 9.48047V11.9561H23.0381V9.48047H16.7393ZM31.1533 1.05762C33.2334 1.04297 34.7129 2.33203 34.7275 4.17773C34.7129 6.02344 33.2334 7.3125 31.1533 7.3125C29.0879 7.3125 27.5645 6.02344 27.5791 4.17773C27.5645 2.33203 29.0879 1.04297 31.1533 1.05762ZM31.1533 2.25879C29.8789 2.25879 28.9414 3.02051 28.9561 4.17773C28.9414 5.33496 29.8789 6.09668 31.1533 6.09668C32.4277 6.09668 33.3652 5.33496 33.3652 4.17773C33.3652 3.02051 32.4277 2.25879 31.1533 2.25879ZM37.7305 0.120117V13.2744H36.3389V0.120117H37.7305ZM26.9492 9.29004C29.3369 9.29004 32.6475 9.26074 35.5186 8.85059L35.6211 9.86133C32.6475 10.4326 29.4688 10.4473 27.125 10.4473L26.9492 9.29004ZM54.6934 0.120117V9.96387H53.375V0.120117H54.6934ZM52.0859 0.354492V9.58301H50.7529V4.48535H48.834V3.34277H50.7529V0.354492H52.0859ZM55.0742 11.8389V12.9668H45.9922V8.7627H47.3691V11.8389H55.0742ZM47.4717 2.90332C47.4717 4.44141 48.3359 5.99414 50.0059 6.72656L49.2295 7.7959C48.0723 7.26855 47.2593 6.32373 46.8271 5.18848C46.3438 6.45557 45.4722 7.54688 44.249 8.13281L43.4727 7.06348C45.2012 6.24316 46.124 4.45605 46.124 2.90332V1.02832H47.4717V2.90332ZM63.1309 1.98047C63.1309 4.11914 65.416 6.14062 67.9355 6.59473L67.291 7.75195C65.1963 7.29785 63.2627 5.9209 62.4131 4.0752C61.5488 5.90625 59.6226 7.2832 57.5205 7.75195L56.9053 6.59473C59.3955 6.12598 61.666 4.11914 61.666 1.98047V0.984375H63.1309V1.98047ZM68.4775 10.3594V11.5166H56.4658V10.3594H68.4775ZM81.4268 6.14062V7.20996H69.415V6.14062H81.4268ZM79.9473 8.13281V11.0186H72.2422V12.1025H80.3574V13.084H70.8506V10.0957H78.5703V9.12891H70.8359V8.13281H79.9473ZM79.918 0.457031V3.29883H72.3301V4.29492H80.1377V5.27637H70.9531V2.37598H78.5264V1.43848H70.9238V0.457031H79.918ZM98.0234 8.03027V9.17285H92.7207V13.2598H91.3438V9.17285H86.0557V8.03027H98.0234ZM96.8809 1.70215V2.83008H92.7354C92.8159 4.28027 94.7935 5.69385 97.291 6.00879L96.793 7.12207C94.6836 6.8291 92.8892 5.84033 92.0469 4.5C91.1899 5.85498 89.3809 6.8291 87.2715 7.12207L86.7588 6.00879C89.2563 5.69385 91.2485 4.30957 91.3438 2.83008H87.1836V1.70215H91.3438V0.120117H92.7207V1.70215H96.8809ZM109.244 0.120117V5.34961H111.28V6.50684H109.244V13.2305H107.853V0.120117H109.244ZM105.816 1.49707C105.802 5.29102 104.132 8.6748 99.8105 10.8135L99.0342 9.72949C102.323 8.08887 104.11 5.71582 104.396 2.6543H99.6934V1.49707H105.816ZM118.473 2.28809V3.41602H111.954V2.28809H114.532V0.500977H115.909V2.28809H118.473ZM115.221 4.20703C116.891 4.20703 118.062 5.45215 118.077 7.22461C118.062 9.01172 116.891 10.2715 115.221 10.2715C113.58 10.2715 112.364 9.01172 112.379 7.22461C112.364 5.45215 113.58 4.20703 115.221 4.20703ZM115.221 5.36426C114.269 5.36426 113.609 6.14062 113.609 7.22461C113.609 8.33789 114.269 9.08496 115.221 9.08496C116.158 9.08496 116.847 8.33789 116.847 7.22461C116.847 6.14062 116.158 5.36426 115.221 5.36426ZM123.219 0.120117V13.2451H121.9V6.72656H120.392V12.6299H119.073V0.413086H120.392V5.58398H121.9V0.120117H123.219ZM135.157 1.08691V6.99023H129.122V1.08691H135.157ZM130.484 2.21484V5.87695H133.78V2.21484H130.484ZM138.922 0.120117V3.60645H140.826V4.77832H138.922V8.82129H137.53V0.120117H138.922ZM135.553 8.57227C135.538 10.3154 137.413 11.707 139.903 12.0879L139.347 13.1865C137.354 12.8423 135.67 11.8682 134.879 10.4619C134.066 11.8682 132.374 12.8423 130.382 13.1865L129.84 12.0879C132.301 11.707 134.176 10.3154 134.176 8.57227V8.19141H135.553V8.57227ZM147.55 0.339844C150.509 0.339844 152.237 1.13086 152.237 2.5957C152.237 4.06055 150.509 4.86621 147.55 4.86621C144.591 4.86621 142.862 4.06055 142.862 2.5957C142.862 1.13086 144.591 0.339844 147.55 0.339844ZM147.55 1.36523C145.455 1.36523 144.298 1.81934 144.312 2.5957C144.298 3.40137 145.455 3.82617 147.55 3.82617C149.645 3.82617 150.802 3.40137 150.802 2.5957C150.802 1.81934 149.645 1.36523 147.55 1.36523ZM153.541 5.67188V6.78516H141.573V5.67188H153.541ZM152.032 7.7959V10.8721H144.386V12.0439H152.398V13.1133H143.023V9.86133H150.655V8.83594H143.009V7.7959H152.032ZM207.315 0.120117V5.4375H209.425V6.59473H207.315V13.2451H205.938V0.120117H207.315ZM204.796 2.1709V3.31348H197.018V2.1709H200.255V0.295898H201.646V2.1709H204.796ZM200.958 4.28027C202.833 4.28027 204.21 5.54004 204.225 7.32715C204.21 9.12891 202.833 10.374 200.958 10.3887C199.068 10.374 197.691 9.12891 197.691 7.32715C197.691 5.54004 199.068 4.28027 200.958 4.28027ZM200.958 5.42285C199.845 5.42285 199.01 6.19922 199.024 7.32715C199.01 8.46973 199.845 9.23145 200.958 9.2168C202.071 9.23145 202.892 8.46973 202.892 7.32715C202.892 6.19922 202.071 5.42285 200.958 5.42285ZM220.675 3.95801V5.07129H211.637V0.588867H213.014V3.95801H220.675ZM222.052 6.72656V7.83984H210.04V6.72656H222.052ZM220.763 11.7949V12.9375H211.534V9.08496H212.926V11.7949H220.763ZM44.4321 18.75V19.7021C44.4321 20.6982 44.4321 21.8408 44.1099 23.3643L42.7329 23.2178C43.0405 21.7969 43.0552 20.7788 43.0552 19.8486H35.3794V18.75H44.4321ZM45.9263 24.1992V25.3125H33.9878V24.1992H38.7778V21.6211H40.1401V24.1992H45.9263ZM40.6089 26.8066C40.5942 28.418 42.4546 29.751 45.0327 30.1025L44.5054 31.1865C42.4253 30.8716 40.7114 29.9561 39.9058 28.6084C39.0928 29.9561 37.3716 30.8716 35.3062 31.1865L34.8081 30.1025C37.3423 29.751 39.188 28.418 39.2026 26.8066V26.2793H40.6089V26.8066ZM49.2954 28.9893L48.1235 33.0322H46.8784L47.6548 28.9893H49.2954ZM55.0376 30V19.3945H56.6489V24.4482H56.7808L61.2192 19.3945H63.2407L58.9634 24.1699L63.2554 30H61.3071L57.894 25.2686L56.6489 26.7041V30H55.0376ZM66.1851 19.3945V30H64.5737V19.3945H66.1851ZM75.5161 22.8516C75.2524 21.4893 74.1245 20.7275 72.7769 20.7275C70.9458 20.7275 69.5835 22.1338 69.5835 24.6973C69.5835 27.2754 70.9604 28.667 72.7769 28.667C74.1099 28.667 75.2378 27.9199 75.5161 26.5723L77.1421 26.5869C76.8052 28.6816 75.0913 30.1465 72.7622 30.1465C69.9937 30.1465 67.9868 28.0811 67.9868 24.6973C67.9868 21.2988 70.0083 19.248 72.7622 19.248C75.0034 19.248 76.7759 20.5664 77.1421 22.8516H75.5161ZM78.8853 30V19.3945H80.4966V24.4482H80.6284L85.0669 19.3945H87.0884L82.811 24.1699L87.103 30H85.1548L81.7417 25.2686L80.4966 26.7041V30H78.8853ZM99.1147 18.1201V31.2451H97.7817V18.1201H99.1147ZM96.4487 18.3691V30.6006H95.1157V24.2725H93.6362C93.519 26.8359 92.4204 28.4326 90.7944 28.418C89.0806 28.4326 87.9673 26.6309 87.9673 23.7891C87.9673 20.9473 89.0806 19.1602 90.7944 19.1748C92.3911 19.1602 93.4751 20.6763 93.6362 23.1445H95.1157V18.3691H96.4487ZM90.7944 20.4785C89.8423 20.4785 89.2563 21.6943 89.2563 23.7891C89.2563 25.8838 89.8423 27.0996 90.7944 27.0996C91.7612 27.0996 92.3618 25.8838 92.3618 23.7891C92.3618 21.6943 91.7612 20.4785 90.7944 20.4785ZM109.017 20.0977C109.002 21.6064 110.218 23.0273 112.24 23.5986L111.581 24.6826C110.064 24.2505 108.937 23.3057 108.343 22.1045C107.765 23.4741 106.593 24.5215 104.974 25.0049L104.3 23.9209C106.351 23.3057 107.611 21.7676 107.611 20.1123V19.9365H104.74V18.8232H111.844V19.9365H109.017V20.0977ZM114.759 18.1201V20.8887H116.664V22.0312H114.759V24.873H113.368V18.1201H114.759ZM114.759 25.4443V28.7109H107.669V30.0293H115.213V31.1133H106.307V27.7002H113.382V26.5283H106.278V25.4443H114.759ZM127.049 18.9111C129.862 18.9258 131.898 20.3027 131.898 22.3975C131.898 24.3677 130.191 25.6641 127.738 25.8691V28.4473H133.084V29.6045H121.073V28.4473H126.361V25.8691C123.922 25.6641 122.215 24.3677 122.215 22.3975C122.215 20.3027 124.251 18.9258 127.049 18.9111ZM127.049 20.0537C125.028 20.0391 123.563 20.9766 123.563 22.3975C123.563 23.877 125.028 24.7852 127.049 24.7998C129.085 24.7852 130.55 23.877 130.55 22.3975C130.55 20.9766 129.085 20.0391 127.049 20.0537ZM144.979 18.1201V25.7666H143.587V23.291H141.112V22.1631H143.587V20.7422H141.112V19.6143H143.587V18.1201H144.979ZM138.651 19.9219C138.651 21.7676 139.823 23.5693 141.8 24.3018L141.009 25.4004C139.596 24.8364 138.541 23.7305 137.977 22.3535C137.406 23.833 136.314 25.0122 134.798 25.6055L134.022 24.5068C136.073 23.7451 137.259 21.9287 137.274 19.9219V18.6035H138.651V19.9219ZM138.695 26.7773C138.695 27.9126 139.251 29.1064 140.453 29.8389C141.654 29.0479 142.225 27.7734 142.225 26.7773V26.2354H143.587V26.7773C143.587 28.1396 144.481 29.4727 146.224 30.0293L145.506 31.0693C144.217 30.6079 143.338 29.729 142.884 28.6377C142.474 29.707 141.683 30.6812 140.467 31.1865C139.222 30.7104 138.424 29.7729 138.021 28.6963C137.545 29.729 136.681 30.6079 135.443 31.0693L134.769 30.0293C136.439 29.4434 137.347 28.0518 137.362 26.7773V26.2354H138.695V26.7773ZM149.857 25.9863V27.3779H156.024V25.9863H157.416V31.084H148.48V25.9863H149.857ZM149.857 29.9707H156.024V28.4619H149.857V29.9707ZM158.968 24.0088V25.166H147V24.0088H158.968ZM153.695 18.8232C153.695 20.332 155.79 21.7969 158.309 22.1045L157.811 23.2031C155.68 22.9028 153.827 21.8994 152.992 20.5078C152.135 21.9067 150.274 22.9028 148.172 23.2031L147.645 22.1045C150.194 21.7822 152.274 20.376 152.274 18.8232V18.2666H153.695V18.8232ZM170.863 18.1201V31.2451H169.471V18.1201H170.863ZM162.147 19.3945V26.7041C164.059 26.6895 166.073 26.5356 168.182 26.1035L168.373 27.2754C166.043 27.7441 163.934 27.9053 161.869 27.9053H160.77V19.3945H162.147ZM183.153 18.1201V23.2031H185.262V24.3457H183.153V31.2744H181.761V18.1201H183.153ZM179.623 19.3799V20.5078H174.876V26.8506C177.081 26.8433 178.736 26.748 180.604 26.4111L180.78 27.583C178.729 27.9492 176.986 28.0225 174.54 28.0078H173.485V19.3799H179.623ZM188.309 19.3945L188.177 26.9385H186.727L186.595 19.3945H188.309ZM187.459 30.1025C186.888 30.1025 186.405 29.6338 186.419 29.0625C186.405 28.4912 186.888 28.0225 187.459 28.0225C188.016 28.0225 188.5 28.4912 188.5 29.0625C188.5 29.6338 188.016 30.1025 187.459 30.1025Z" fill="white"/>
<path d="M168.775 0.662109V1.59961C168.775 2.57373 168.775 3.8335 168.497 5.51074H170.255V6.8291H158.155V5.51074H166.856C167.113 4.00928 167.142 2.88135 167.149 1.96582H159.649V0.662109H168.775ZM168.834 8.51367V13.3184H167.208V9.80273H159.43V8.51367H168.834ZM182.516 0.0615234V13.3037H180.963V6.55078H179.469V12.6299H177.975V0.310547H179.469V5.24707H180.963V0.0615234H182.516ZM176.48 1.62891V2.94727H173.17V8.83594C174.613 8.82129 175.799 8.74805 177.14 8.49902L177.257 9.83203C175.66 10.1543 174.269 10.1982 172.423 10.2129H171.529V1.62891H176.48ZM194.557 0.0615234V5.52539H196.417V6.8877H194.557V13.3037H192.916V0.0615234H194.557ZM183.922 9.62695C184.925 9.62695 186.09 9.62695 187.306 9.59766V8.35254C185.863 8.11084 184.918 7.20264 184.933 5.96484C184.918 4.4707 186.236 3.47461 188.141 3.47461C190.016 3.47461 191.349 4.4707 191.363 5.96484C191.349 7.20996 190.389 8.11816 188.946 8.35254V9.53906C190.06 9.48047 191.173 9.39258 192.213 9.24609L192.315 10.4326C189.474 10.9453 186.412 10.9746 184.156 10.9746L183.922 9.62695ZM192.066 1.58496V2.87402H184.171V1.58496H187.306V0.120117H188.946V1.58496H192.066ZM188.141 4.71973C187.13 4.73438 186.471 5.18848 186.471 5.96484C186.471 6.72656 187.13 7.18066 188.141 7.16602C189.137 7.18066 189.796 6.72656 189.796 5.96484C189.796 5.18848 189.137 4.73438 188.141 4.71973Z" fill="#FF6C46"/>
</svg>
