<svg width="80" height="80" viewBox="0 0 80 80" fill="none" xmlns="http://www.w3.org/2000/svg">
<path d="M44.6665 6.66667H19.9998C18.2317 6.66667 16.536 7.36904 15.2858 8.61929C14.0355 9.86953 13.3332 11.5652 13.3332 13.3333V66.6667C13.3332 68.4348 14.0355 70.1305 15.2858 71.3807C16.536 72.631 18.2317 73.3333 19.9998 73.3333H59.9998C61.7679 73.3333 63.4636 72.631 64.7139 71.3807C65.9641 70.1305 66.6665 68.4348 66.6665 66.6667V42M6.6665 20H19.9998M6.6665 33.3333H19.9998M6.6665 46.6667H19.9998M6.6665 60H19.9998" stroke="black" stroke-width="2" stroke-linecap="round" stroke-linejoin="round"/>
<path d="M71.2596 18.7533C72.5874 17.4255 73.3334 15.6245 73.3334 13.7467C73.3334 11.8688 72.5874 10.0678 71.2596 8.74C69.9317 7.41215 68.1308 6.66617 66.2529 6.66617C64.3751 6.66617 62.5741 7.41215 61.2463 8.74L44.5463 25.4467C43.7538 26.2387 43.1737 27.2178 42.8596 28.2933L40.0696 37.86C39.9859 38.1468 39.9809 38.4509 40.0551 38.7403C40.1292 39.0297 40.2798 39.2939 40.4911 39.5052C40.7024 39.7164 40.9665 39.867 41.256 39.9412C41.5454 40.0153 41.8494 40.0103 42.1363 39.9267L51.7029 37.1367C52.7785 36.8226 53.7575 36.2425 54.5496 35.45L71.2596 18.7533Z" stroke="black" stroke-width="2" stroke-linecap="round" stroke-linejoin="round"/>
</svg>
