<svg width="145" height="208" viewBox="0 0 145 208" fill="none" xmlns="http://www.w3.org/2000/svg">
<rect x="0.5" y="0.5" width="144" height="207" rx="19.5" fill="#FF6C46"/>
<rect x="0.5" y="0.5" width="144" height="207" rx="19.5" stroke="#BCBCBC"/>
<path d="M60.4998 108.167L54.2498 101.917M89.6665 112.333L81.3332 104M35.4998 141.5C35.4998 141.5 76.4748 126.962 88.3498 115.083C91.854 111.577 93.8224 106.823 93.8224 101.867C93.8224 96.9098 91.854 92.1559 88.3498 88.65C86.6152 86.9142 84.5554 85.5372 82.2884 84.5977C80.0213 83.6582 77.5914 83.1747 75.1373 83.1747C72.6833 83.1747 70.2534 83.6582 67.9863 84.5977C65.7192 85.5372 63.6595 86.9142 61.9248 88.65C50.0082 100.571 35.479 141.521 35.479 141.521L35.4998 141.5ZM114.667 87.3333C114.667 87.3333 109.917 79 102.167 79C96.3082 79 89.6665 87.3333 89.6665 87.3333C89.6665 87.3333 94.4165 95.6667 102.167 95.6667C109.917 95.6667 114.667 87.3333 114.667 87.3333Z" stroke="white" stroke-width="4" stroke-linecap="round" stroke-linejoin="round"/>
<path d="M89.6663 62.3333C89.6663 62.3333 81.333 67.0833 81.333 74.8333C81.333 82.5833 89.6663 87.3333 89.6663 87.3333C89.6663 87.3333 97.9997 80.7625 97.9997 74.8333C97.9997 67.0833 89.6663 62.3333 89.6663 62.3333Z" stroke="white" stroke-width="4" stroke-linecap="round" stroke-linejoin="round"/>
</svg>
