<svg width="78" height="24" viewBox="0 0 78 24" fill="none" xmlns="http://www.w3.org/2000/svg">
<path d="M0.25 24V-3.57628e-07H3.88C5.05 -3.57628e-07 5.98 0.929998 5.98 2.1V6.63L12.61 -3.57628e-07H20.5L8.44 12.06L20.38 24H12.49L5.98 17.49V24H0.25ZM23.5117 24V-3.57628e-07H27.1417C28.2817 -3.57628e-07 29.2417 0.929998 29.2417 2.1V24H23.5117ZM44.6863 24C38.3863 24 32.9863 18.78 32.9863 12.51C32.9863 5.64 38.2063 -3.57628e-07 45.0763 -3.57628e-07C48.4363 -3.57628e-07 51.3463 1.26 53.4463 3.54L50.7163 6.27C50.0863 6.9 49.0663 7.11 48.2263 6.48C47.1763 6.06 46.1263 5.64 44.8663 5.64C41.5363 5.64 38.8363 8.34 38.8363 11.7C38.8363 15.15 41.3263 18.39 45.0763 18.39C46.1263 18.39 47.3863 17.94 48.2263 17.52C49.0663 16.89 50.0863 17.1 50.7163 17.73L53.4463 20.46C51.3463 22.77 48.2263 24 44.6863 24ZM57.2031 24V-3.57628e-07H60.8331C62.0031 -3.57628e-07 62.9331 0.929998 62.9331 2.1V6.63L69.5631 -3.57628e-07H77.4531L65.3931 12.06L77.3331 24H69.4431L62.9331 17.49V24H57.2031Z" fill="white"/>
</svg>
