<svg width="61" height="18" viewBox="0 0 61 18" fill="none" xmlns="http://www.w3.org/2000/svg">
<path d="M13.635 6.02996L13.9822 5.68196C14.2587 5.40537 14.6338 5.24995 15.0248 5.24988C15.4159 5.24981 15.791 5.4051 16.0676 5.68159C16.3442 5.95807 16.4996 6.33311 16.4997 6.7242C16.4998 7.11528 16.3445 7.49037 16.068 7.76696L15.7207 8.11496M13.635 6.02996C13.635 6.02996 13.6785 6.76796 14.3302 7.41971C14.982 8.07146 15.7207 8.11496 15.7207 8.11496M13.635 6.02996L10.44 9.22496C10.2225 9.44096 10.1145 9.54971 10.0215 9.66896C9.91148 9.80996 9.81798 9.96146 9.74098 10.1235C9.67573 10.26 9.62773 10.4047 9.53098 10.695L9.22123 11.625L9.12073 11.9257M15.7207 8.11496L12.5257 11.31C12.3082 11.5275 12.2002 11.6355 12.081 11.7285C11.94 11.8385 11.7885 11.932 11.6265 12.009C11.49 12.0742 11.3452 12.1222 11.055 12.219L10.125 12.5287L9.82423 12.6292M9.12073 11.9257L9.02098 12.2272C8.99775 12.2972 8.99444 12.3723 9.01142 12.444C9.02841 12.5158 9.06502 12.5814 9.11716 12.6335C9.1693 12.6857 9.23492 12.7223 9.30667 12.7393C9.37843 12.7563 9.4535 12.7529 9.52348 12.7297L9.82423 12.6292M9.12073 11.9257L9.82423 12.6292" stroke="black" stroke-width="1.5"/>
<path d="M6 9.75H7.875M6 6.75H10.875M6 12.75H7.125M2.25 10.5V7.5C2.25 4.67175 2.25 3.25725 3.129 2.379C4.008 1.50075 5.42175 1.5 8.25 1.5H9.75C12.5782 1.5 13.9927 1.5 14.871 2.379M15.75 10.5C15.75 13.3282 15.75 14.7427 14.871 15.621M14.871 15.621C13.9927 16.5 12.5782 16.5 9.75 16.5H8.25C5.42175 16.5 4.00725 16.5 3.129 15.621M14.871 15.621C15.579 14.9137 15.7162 13.86 15.7432 12" stroke="black" stroke-width="1.5" stroke-linecap="round"/>
<path d="M22.9814 14V3.39453H24.8857V8.27246H25.0322L29.1777 3.39453H31.5068L27.4053 8.15527L31.5508 14H29.251L26.0723 9.44434L24.8857 10.8359V14H22.9814ZM34.627 3.39453V14H32.7227V3.39453H34.627ZM43.7529 6.96875C43.5332 5.69434 42.5078 4.96191 41.2188 4.96191C39.4756 4.96191 38.2598 6.29492 38.2598 8.69727C38.2598 11.1289 39.4902 12.4326 41.2188 12.4326C42.4785 12.4326 43.5039 11.7295 43.7529 10.4844H45.6719C45.3789 12.5205 43.709 14.1465 41.1895 14.1465C38.3916 14.1465 36.3408 12.1104 36.3408 8.69727C36.3408 5.26953 38.4209 3.24805 41.1895 3.24805C43.5332 3.24805 45.3496 4.61035 45.6719 6.96875H43.7529ZM47.3125 14V3.39453H49.2168V8.27246H49.3633L53.5088 3.39453H55.8379L51.7363 8.15527L55.8818 14H53.582L50.4033 9.44434L49.2168 10.8359V14H47.3125ZM59.2363 3.39453L59.0752 10.8799H57.4199L57.2441 3.39453H59.2363ZM58.2549 14.1172C57.625 14.1172 57.1123 13.6045 57.1123 12.9746C57.1123 12.3594 57.625 11.8467 58.2549 11.8467C58.8555 11.8467 59.3828 12.3594 59.3828 12.9746C59.3828 13.6045 58.8555 14.1172 58.2549 14.1172Z" fill="black"/>
</svg>
