<svg width="89" height="23" viewBox="0 0 89 23" fill="none" xmlns="http://www.w3.org/2000/svg">
<path d="M0.435547 22V0.789062H6.00195V17.4883H14.6445V22H0.435547ZM36.5879 11.3945C36.5879 18.4551 32.0762 22.293 26.334 22.293C20.5332 22.293 16.0508 18.4258 16.0508 11.3945C16.0508 4.33398 20.5332 0.496094 26.334 0.496094C32.0762 0.496094 36.5879 4.33398 36.5879 11.3945ZM30.8457 11.3945C30.8457 7.49805 29.2344 5.35938 26.334 5.35938C23.4043 5.35938 21.793 7.49805 21.793 11.3945C21.793 15.291 23.4043 17.4297 26.334 17.4297C29.2344 17.4297 30.8457 15.291 30.8457 11.3945ZM53.1113 7.76172C52.7305 6.23828 51.4707 5.35938 49.5957 5.35938C46.6367 5.35938 44.9082 7.58594 44.9082 11.3652C44.9082 15.1738 46.5195 17.4297 49.5664 17.4297C52.2178 17.4297 53.5654 16.1846 53.6094 14.207H49.6836V10.2227H59V13.123C59 18.8945 55.0449 22.293 49.5078 22.293C43.3555 22.293 39.166 18.1328 39.166 11.4238C39.166 4.45117 43.7656 0.496094 49.4785 0.496094C54.459 0.496094 58.2969 3.51367 58.7656 7.76172H53.1113ZM67.3496 0.789062V22H61.7832V0.789062H67.3496ZM88.4727 0.789062V22H83.8145L75.9336 10.5449H75.7871V22H70.2207V0.789062H74.9668L82.7305 12.1855H82.9062V0.789062H88.4727Z" fill="black"/>
</svg>
