<svg width="145" height="208" viewBox="0 0 145 208" fill="none" xmlns="http://www.w3.org/2000/svg">
<rect x="0.5" y="0.5" width="144" height="207" rx="19.5" fill="white"/>
<rect x="0.5" y="0.5" width="144" height="207" rx="19.5" stroke="#BCBCBC"/>
<path d="M64.6664 120.021L50.8581 133.829C54.0748 136.121 54.5081 140.942 51.6914 143.758C51.0859 144.364 50.3668 144.845 49.5754 145.173C48.7839 145.501 47.9356 145.67 47.0789 145.67C46.2222 145.67 45.3739 145.501 44.5825 145.173C43.7911 144.845 43.072 144.364 42.4664 143.758C40.4581 141.75 39.7706 138.496 40.9289 136.071C38.5039 137.229 35.2498 136.542 33.2414 134.533C32.0188 133.31 31.332 131.652 31.332 129.923C31.332 128.194 32.0188 126.535 33.2414 125.312C36.0581 122.496 40.8789 122.925 43.1706 126.146L56.9789 112.333" stroke="#BCBCBC" stroke-width="4" stroke-linecap="round" stroke-linejoin="round"/>
<path d="M75.2375 69.3417C84.9625 59.6167 98.7042 60.3875 107.658 69.3417C114.804 76.4875 116.742 86.6833 112.283 95.4542C104.887 85.6458 88.2417 93.1625 91.3542 105.483C84.4875 102.625 78.5958 111.454 83.325 116.762C73.4083 120.8 63.5417 122.492 59.025 117.971C50.0708 109.021 65.5125 79.0667 75.2375 69.3417Z" stroke="#BCBCBC" stroke-width="4" stroke-linecap="round" stroke-linejoin="round"/>
</svg>
