<svg width="80" height="80" viewBox="0 0 80 80" fill="none" xmlns="http://www.w3.org/2000/svg">
<path d="M33.3335 52.8167L22.2869 63.8634C24.8602 65.6967 25.2069 69.5534 22.9535 71.8067C22.4691 72.2915 21.8938 72.6761 21.2607 72.9385C20.6275 73.2009 19.9489 73.3359 19.2635 73.3359C18.5782 73.3359 17.8995 73.2009 17.2664 72.9385C16.6332 72.6761 16.058 72.2915 15.5735 71.8067C13.9669 70.2001 13.4169 67.5967 14.3435 65.6567C12.4035 66.5834 9.8002 66.0334 8.19353 64.4267C7.21547 63.4485 6.66602 62.1218 6.66602 60.7384C6.66602 59.3551 7.21547 58.0284 8.19353 57.0501C10.4469 54.7967 14.3035 55.1401 16.1369 57.7167L27.1835 46.6667" stroke="black" stroke-width="2" stroke-linecap="round" stroke-linejoin="round"/>
<path d="M41.7904 12.2734C49.5704 4.49337 60.5637 5.11004 67.7271 12.2734C73.4437 17.99 74.9937 26.1467 71.427 33.1634C65.5104 25.3167 52.1937 31.33 54.6837 41.1867C49.1904 38.9 44.4771 45.9634 48.2604 50.21C40.327 53.44 32.4337 54.7934 28.8204 51.1767C21.6571 44.0167 34.0104 20.0534 41.7904 12.2734Z" stroke="black" stroke-width="2" stroke-linecap="round" stroke-linejoin="round"/>
</svg>
