<svg width="80" height="80" viewBox="0 0 80 80" fill="none" xmlns="http://www.w3.org/2000/svg">
<path d="M38.0669 9.65C38.6612 9.33052 39.3255 9.16331 40.0002 9.16331C40.675 9.16331 41.3392 9.33052 41.9336 9.65C47.0077 12.509 51.5794 16.1798 55.4669 20.5167C61.033 26.4766 65.9083 33.046 70.0002 40.1C70.1091 40.2875 70.17 40.499 70.1775 40.7156C70.185 40.9323 70.1389 41.1475 70.0433 41.3421C69.9477 41.5367 69.8054 41.7046 69.6293 41.831C69.4531 41.9574 69.2485 42.0384 69.0335 42.0667L63.3336 42.7833C63.0714 42.8194 62.831 42.9488 62.6565 43.1478C62.482 43.3468 62.3851 43.602 62.3836 43.8667V54.5167C62.3836 57.6167 61.3836 66.1833 60.9669 69.5167C60.9293 69.8908 60.7526 70.2373 60.4717 70.4873C60.1908 70.7373 59.8262 70.8727 59.4502 70.8667H20.4836C20.1075 70.8727 19.743 70.7373 19.4621 70.4873C19.1812 70.2373 19.0044 69.8908 18.9669 69.5167C18.5502 66.1833 17.5502 57.65 17.5502 54.5167V43.8667C17.5487 43.602 17.4518 43.3468 17.2773 43.1478C17.1028 42.9488 16.8624 42.8194 16.6002 42.7833L11.0169 42.0667C10.7976 42.0458 10.5871 41.9702 10.4045 41.8468C10.222 41.7234 10.0734 41.5563 9.97224 41.3606C9.87108 41.1649 9.82063 40.947 9.82552 40.7267C9.83041 40.5065 9.89048 40.291 10.0002 40.1C14.0765 33.0485 18.935 26.4792 24.4836 20.5167C28.3861 16.1755 32.9749 12.5044 38.0669 9.65Z" stroke="black" stroke-width="2" stroke-linecap="round" stroke-linejoin="round"/>
<path d="M51.3833 70.8333C52.3833 63.9167 53.4999 38.5833 53.4999 30.3833C53.4999 30.3833 44.0999 41.0667 43.9999 51.85V56.35C43.9998 56.9921 44.2358 57.6119 44.663 58.0913C45.0902 58.5708 45.6787 58.8764 46.3166 58.95L52.3333 59.6833M32.2166 32.6333C31.5111 45.3569 31.5111 58.1098 32.2166 70.8333" stroke="black" stroke-width="2" stroke-linecap="round" stroke-linejoin="round"/>
<path d="M26.9499 32.4C26.4499 38.5833 26.0333 49.2667 26.5833 52.8167C27.1833 56.6667 31.7499 56.65 31.7499 56.65C31.7499 56.65 36.9166 56.3167 36.9166 52.8167C36.8833 50.5167 37.2166 38.2667 37.3666 32.6333" stroke="black" stroke-width="2" stroke-linecap="round" stroke-linejoin="round"/>
</svg>
