<svg width="81" height="106" viewBox="0 0 81 106" fill="none" xmlns="http://www.w3.org/2000/svg">
<rect x="0.5" width="80" height="80" rx="40" fill="#707070" fill-opacity="0.2"/>
<path d="M24.1465 61.0667C29.2771 65.0551 35.6875 67.0328 42.1734 66.6282C48.6592 66.2236 54.7742 63.4646 59.3693 58.8695C63.9644 54.2743 66.7235 48.1594 67.1281 41.6735C67.5326 35.1877 65.5549 28.7772 61.5665 23.6467L24.1465 61.0667ZM19.4332 56.3533L56.8532 18.9333C51.7226 14.9449 45.3122 12.9672 38.8263 13.3718C32.3404 13.7764 26.2255 16.5354 21.6304 21.1305C17.0353 25.7257 14.2762 31.8406 13.8716 38.3265C13.467 44.8124 15.4447 51.2228 19.4332 56.3533ZM40.4998 73.3333C22.0898 73.3333 7.1665 58.41 7.1665 40C7.1665 21.59 22.0898 6.66667 40.4998 6.66667C58.9098 6.66667 73.8332 21.59 73.8332 40C73.8332 58.41 58.9098 73.3333 40.4998 73.3333Z" fill="white"/>
<path d="M32.1084 99.3691V100.689H33.8857V99.3691H35.0029V103.939H30.9785V99.3691H32.1084ZM32.1084 103H33.8857V101.604H32.1084V103ZM38.3037 100.22C38.3037 101.413 38.9639 102.619 40.373 103.114L39.751 104.028C38.7227 103.635 38.0562 102.892 37.707 101.984C37.3262 102.873 36.6533 103.622 35.6758 104.028L35.0664 103.114C36.4375 102.556 37.1104 101.35 37.1104 100.22V99.293H38.3037V100.22ZM32.832 93.1865C34.3301 93.1865 35.4854 94.0371 35.7393 95.3066H37.9609V92.7041H39.167V98.7344H37.9609V96.2969H35.752C35.5044 97.6045 34.3428 98.4551 32.832 98.4551C31.0928 98.4551 29.8486 97.3887 29.8486 95.8145C29.8486 94.2656 31.0928 93.1865 32.832 93.1865ZM32.832 94.1895C31.7529 94.1895 31.0039 94.8496 31.0039 95.8145C31.0039 96.792 31.7529 97.4648 32.832 97.4775C33.8857 97.4648 34.6348 96.792 34.6348 95.8145C34.6348 94.8496 33.8857 94.1895 32.832 94.1895ZM46.0986 92.9453C48.5996 92.9453 50.1611 93.7578 50.1611 95.1289C50.1611 96.4746 48.5996 97.2744 46.0986 97.2744C43.6104 97.2744 42.0361 96.4746 42.0361 95.1289C42.0361 93.7578 43.6104 92.9453 46.0986 92.9453ZM46.0986 93.8975C44.3467 93.8975 43.2676 94.3418 43.2803 95.1289C43.2676 95.8906 44.3467 96.3223 46.0986 96.335C47.8379 96.3223 48.917 95.8906 48.917 95.1289C48.917 94.3418 47.8379 93.8975 46.0986 93.8975ZM50.0215 100.144V103.939H42.1631V100.144H50.0215ZM43.3564 101.108V102.962H48.8535V101.108H43.3564ZM51.291 98.1504V99.1279H40.9189V98.1504H51.291Z" fill="black"/>
</svg>
