<svg width="227" height="18" viewBox="0 0 227 18" fill="none" xmlns="http://www.w3.org/2000/svg">
<path d="M15.2344 0.6875V2.42578H10.1562C10.498 3.87109 12.627 5.16992 15.918 5.49219L15.1367 7.19141C11.9336 6.86914 9.56055 5.61914 8.61328 3.83203C7.65625 5.60938 5.30273 6.86914 2.10938 7.19141L1.34766 5.49219C4.60938 5.16992 6.72852 3.89062 7.08984 2.42578H2.05078V0.6875H15.2344ZM9.6875 6.25391V8.44141H16.6797V10.1797H0.585938V8.44141H7.53906V6.25391H9.6875ZM14.7266 11.7031V17.5234H2.48047V11.7031H14.7266ZM4.62891 13.4219V15.7656H12.6172V13.4219H4.62891ZM31.543 1.68359V3.46094H25.6641V11.6836C28.418 11.6641 30.3613 11.5469 32.5586 11.1367L32.793 12.8945C30.3125 13.3828 28.1836 13.4805 24.8828 13.4805H23.4766V1.68359H31.543ZM37.4414 0.0820312V17.7578H35.2734V8.07031H30.6055V6.29297H35.2734V0.0820312H37.4414ZM50.1562 4.71094C50.1562 7.5625 51.1523 10.5312 53.5352 12.0352L52.3438 13.6953C50.752 12.7383 49.7168 11.0879 49.1406 9.14453C48.4961 11.2832 47.3633 13.0898 45.7031 14.1055L44.3555 12.4844C46.9141 10.9219 48.0664 7.81641 48.0664 4.80859V1.64453H50.1562V4.71094ZM59.8828 0.0820312V17.7383H57.793V0.0820312H59.8828ZM56.2109 0.394531V16.8789H54.1602V7.95312H51.6406V6.15625H54.1602V0.394531H56.2109ZM67.4414 4.71094C67.4414 7.5625 68.4375 10.5312 70.8203 12.0352L69.6289 13.6953C68.0371 12.7383 67.002 11.0879 66.4258 9.14453C65.7812 11.2832 64.6484 13.0898 62.9883 14.1055L61.6406 12.4844C64.1992 10.9219 65.3516 7.81641 65.3516 4.80859V1.64453H67.4414V4.71094ZM77.168 0.0820312V17.7383H75.0781V0.0820312H77.168ZM73.4961 0.394531V16.8789H71.4453V7.95312H68.9258V6.15625H71.4453V0.394531H73.4961ZM93.0469 0.0820312V7.11328H95.7617V8.91016H93.0469V17.7383H90.8984V0.0820312H93.0469ZM89.5312 2.79688V4.53516H79.1211V2.79688H83.3008V0.335938H85.4688V2.79688H89.5312ZM84.3945 5.6875C86.9336 5.6875 88.8281 7.40625 88.8281 9.84766C88.8281 12.2891 86.9336 13.9883 84.3945 13.9883C81.8164 13.9883 79.9219 12.2891 79.9414 9.84766C79.9219 7.40625 81.8164 5.6875 84.3945 5.6875ZM84.3945 7.46484C83.0078 7.46484 82.0117 8.40234 82.0117 9.84766C82.0117 11.293 83.0078 12.2109 84.3945 12.1914C85.7422 12.2109 86.7383 11.293 86.7578 9.84766C86.7383 8.40234 85.7422 7.46484 84.3945 7.46484ZM111.738 0.0820312V17.7383H109.668V0.0820312H111.738ZM107.988 0.511719V16.8984H105.938V8.77344H102.793C101.758 10.8047 100.098 12.5625 97.5977 14.0078L96.3672 12.4648C100.029 10.3066 101.699 7.54297 102.031 3.98828H97.2656V2.23047H104.18C104.18 3.93945 103.975 5.54102 103.496 7.03516H105.938V0.511719H107.988ZM124.961 3.20703C124.961 5.55078 126.367 7.83594 129.102 8.77344L127.91 10.4727C126.006 9.75 124.639 8.37305 123.906 6.64453C123.135 8.57812 121.699 10.1113 119.629 10.8828L118.477 9.16406C121.309 8.20703 122.754 5.76562 122.773 3.1875V1.17578H124.961V3.20703ZM133.32 0.101562V13.207H131.152V5.76562H127.637V3.98828H131.152V0.101562H133.32ZM133.711 15.6289V17.3867H121.68V11.7812H123.887V15.6289H133.711ZM143.418 1.3125V3.05078H138.574V4.76953H143.242V6.42969H138.574V8.28516C140.732 8.26562 142.227 8.17773 143.945 7.85547L144.18 9.61328C142.109 10.0039 140.391 10.0625 137.656 10.0625H136.484V1.3125H143.418ZM150.918 0.101562V10.8438H148.848V6.25391H147.012V10.707H144.98V0.433594H147.012V4.51562H148.848V0.101562H150.918ZM150.918 11.625V17.7383H148.75V13.3828H138.828V11.625H150.918ZM161.719 2.89453V4.63281H153.066V2.89453H156.348V0.589844H158.496V2.89453H161.719ZM157.422 5.57031C159.668 5.57031 161.27 7.26953 161.27 9.67188C161.27 12.1133 159.668 13.832 157.422 13.832C155.195 13.832 153.555 12.1133 153.574 9.67188C153.555 7.26953 155.195 5.57031 157.422 5.57031ZM157.422 7.36719C156.27 7.36719 155.469 8.28516 155.488 9.67188C155.469 11.0977 156.27 11.9961 157.422 11.9766C158.555 11.9961 159.355 11.0977 159.355 9.67188C159.355 8.28516 158.555 7.36719 157.422 7.36719ZM168.281 0.0820312V17.7383H166.211V9.10547H164.492V16.9375H162.461V0.453125H164.492V7.34766H166.211V0.0820312H168.281ZM186.484 9.92578V11.6836H179.473V17.7188H177.324V11.6836H170.391V9.92578H186.484ZM185 1.07812V2.79688H179.707C179.834 4.73047 182.158 6.58594 185.645 7.03516L184.863 8.73438C181.855 8.31445 179.512 6.9375 178.438 5.02344C177.363 6.9375 175.02 8.31445 172.051 8.73438L171.23 7.03516C174.697 6.58594 177.021 4.73047 177.188 2.79688H171.875V1.07812H185ZM193.184 4.71094C193.184 7.5625 194.18 10.5312 196.562 12.0352L195.371 13.6953C193.779 12.7383 192.744 11.0879 192.168 9.14453C191.523 11.2832 190.391 13.0898 188.73 14.1055L187.383 12.4844C189.941 10.9219 191.094 7.81641 191.094 4.80859V1.64453H193.184V4.71094ZM202.91 0.0820312V17.7383H200.82V0.0820312H202.91ZM199.238 0.394531V16.8789H197.188V7.95312H194.668V6.15625H197.188V0.394531H199.238ZM221.094 13.8125V15.5898H204.961V13.8125H208.691V9.33984C207.285 8.53906 206.436 7.2793 206.445 5.70703C206.426 2.89453 209.199 1.03906 212.988 1.03906C216.797 1.03906 219.57 2.89453 219.57 5.70703C219.57 7.25 218.75 8.49023 217.383 9.30078V13.8125H221.094ZM212.988 2.75781C210.352 2.75781 208.555 3.87109 208.574 5.70703C208.555 7.52344 210.352 8.65625 212.988 8.65625C215.625 8.65625 217.441 7.52344 217.441 5.70703C217.441 3.87109 215.625 2.75781 212.988 2.75781ZM210.84 13.8125H215.176V10.1211C214.502 10.2773 213.77 10.3555 212.988 10.3555C212.227 10.3555 211.504 10.2773 210.84 10.1406V13.8125ZM225.879 1.85938L225.664 11.8398H223.457L223.223 1.85938H225.879ZM224.57 16.1562C223.73 16.1562 223.047 15.4727 223.047 14.6328C223.047 13.8125 223.73 13.1289 224.57 13.1289C225.371 13.1289 226.074 13.8125 226.074 14.6328C226.074 15.4727 225.371 16.1562 224.57 16.1562Z" fill="black"/>
</svg>
