<svg width="111" height="23" viewBox="0 0 111 23" fill="none" xmlns="http://www.w3.org/2000/svg">
<path d="M12.8613 7.35156C12.8027 6.61914 12.5293 6.0625 12.041 5.68164C11.5527 5.29102 10.8398 5.0957 9.90234 5.0957C9.00391 5.0957 8.33008 5.25684 7.88086 5.5791C7.43164 5.8916 7.20703 6.31641 7.20703 6.85352C7.20703 7.37109 7.44629 7.79102 7.9248 8.11328C8.40332 8.42578 9.14062 8.68945 10.1367 8.9043L11.8945 9.31445C14.1406 9.79297 15.8008 10.5742 16.875 11.6582C17.9492 12.7324 18.4961 14.0996 18.5156 15.7598C18.5059 17.1367 18.1592 18.3135 17.4756 19.29C16.792 20.2568 15.8105 20.9941 14.5312 21.502C13.252 22.0098 11.7188 22.2637 9.93164 22.2637C7.10938 22.2637 4.89746 21.6289 3.2959 20.3594C1.69434 19.0898 0.878906 17.1855 0.849609 14.6465H6.18164C6.2207 15.6133 6.5625 16.3604 7.20703 16.8877C7.85156 17.4053 8.73047 17.6641 9.84375 17.6641C10.7715 17.6641 11.4893 17.4932 11.9971 17.1514C12.5146 16.7998 12.7832 16.3359 12.8027 15.7598C12.7832 15.2422 12.5293 14.8223 12.041 14.5C11.5625 14.1777 10.7324 13.8848 9.55078 13.6211L7.41211 13.1523C3.4082 12.2734 1.40625 10.291 1.40625 7.20508C1.39648 5.88672 1.75293 4.71973 2.47559 3.7041C3.19824 2.68848 4.2041 1.90234 5.49316 1.3457C6.78223 0.779297 8.25195 0.496094 9.90234 0.496094C11.582 0.496094 13.0469 0.779297 14.2969 1.3457C15.5469 1.91211 16.5088 2.71289 17.1826 3.74805C17.8662 4.7832 18.2129 5.98438 18.2227 7.35156H12.8613ZM26.3672 22H20.8008V0.789062H26.3672V22ZM47.4902 22H42.832L34.9512 10.5449H34.8047V22H29.2383V0.789062H33.9844L41.748 12.1855H41.9238V0.789062H47.4902V22ZM64.1602 7.76172C63.9648 7 63.5645 6.40918 62.959 5.98926C62.3535 5.56934 61.582 5.35938 60.6445 5.35938C59.668 5.35938 58.8281 5.59863 58.125 6.07715C57.4219 6.5459 56.8848 7.23438 56.5137 8.14258C56.1426 9.04102 55.957 10.1152 55.957 11.3652C55.957 13.2891 56.3574 14.7832 57.1582 15.8477C57.959 16.9023 59.1113 17.4297 60.6152 17.4297C61.9141 17.4297 62.9053 17.1465 63.5889 16.5801C64.2822 16.0039 64.6387 15.2129 64.6582 14.207H60.7324V10.2227H70.0488V13.123C70.0488 15.0078 69.6436 16.6436 68.833 18.0303C68.0322 19.4072 66.9141 20.4619 65.4785 21.1943C64.043 21.9268 62.4023 22.293 60.5566 22.293C58.5156 22.293 56.7139 21.8535 55.1514 20.9746C53.5889 20.0859 52.373 18.8262 51.5039 17.1953C50.6445 15.5547 50.2148 13.6309 50.2148 11.4238C50.2148 9.16797 50.6689 7.21484 51.5771 5.56445C52.4854 3.91406 53.7207 2.65918 55.2832 1.7998C56.8555 0.930664 58.6035 0.496094 60.5273 0.496094C62.168 0.496094 63.667 0.808594 65.0244 1.43359C66.3818 2.04883 67.4805 2.9082 68.3203 4.01172C69.1602 5.11523 69.6582 6.36523 69.8145 7.76172H64.1602ZM91.0254 0.789062V14.4121C91.0254 15.9941 90.6445 17.3809 89.8828 18.5723C89.1309 19.7539 88.0664 20.667 86.6895 21.3115C85.3125 21.9463 83.7207 22.2637 81.9141 22.2637C80.1074 22.2637 78.5156 21.9463 77.1387 21.3115C75.7715 20.667 74.7119 19.7539 73.96 18.5723C73.208 17.3809 72.832 15.9941 72.832 14.4121V0.789062H78.3984V13.9141C78.3984 14.5879 78.5498 15.1934 78.8525 15.7305C79.1553 16.2578 79.5703 16.6729 80.0977 16.9756C80.6348 17.2783 81.2402 17.4297 81.9141 17.4297C82.5977 17.4297 83.208 17.2832 83.7451 16.9902C84.2822 16.6875 84.7021 16.2676 85.0049 15.7305C85.3076 15.1934 85.459 14.5879 85.459 13.9141V0.789062H91.0254ZM93.8965 0.789062H102.92C104.482 0.789062 105.854 1.10156 107.036 1.72656C108.228 2.3418 109.146 3.21094 109.79 4.33398C110.444 5.45703 110.771 6.75586 110.771 8.23047C110.771 9.72461 110.439 11.0283 109.775 12.1416C109.111 13.2549 108.174 14.1143 106.963 14.7197C105.752 15.3154 104.346 15.6133 102.744 15.6133H99.4629V22H93.8965V0.789062ZM101.631 11.2773C102.676 11.2773 103.486 11.0088 104.062 10.4717C104.648 9.9248 104.941 9.17773 104.941 8.23047C104.941 7.30273 104.648 6.5752 104.062 6.04785C103.486 5.51074 102.676 5.24219 101.631 5.24219H99.4629V11.2773H101.631Z" fill="black"/>
</svg>
