<svg width="131" height="18" viewBox="0 0 131 18" fill="none" xmlns="http://www.w3.org/2000/svg">
<g clip-path="url(#clip0_102_1016)">
<path fill-rule="evenodd" clip-rule="evenodd" d="M10.8109 13.5768C10.8596 12.6317 10.6465 11.6918 10.1961 10.8645C9.74573 10.0372 9.0762 9.35602 8.26415 8.89882C8.11992 8.8137 7.94894 8.78903 7.78725 8.83002C7.62555 8.87102 7.48577 8.97446 7.39736 9.11856L6.3645 10.8054L5.50522 9.74498C5.45801 9.68686 5.39951 9.63934 5.33341 9.60542C5.26731 9.5715 5.19504 9.55193 5.12115 9.54792C5.04727 9.54391 4.97337 9.55557 4.90412 9.58215C4.83487 9.60872 4.77177 9.64965 4.71879 9.70235C4.21239 10.2014 3.81689 10.8055 3.55903 11.4739C3.30118 12.1423 3.18697 12.8594 3.22414 13.5768C3.22414 14.6032 3.62375 15.5875 4.33505 16.3133C5.04635 17.0391 6.01107 17.4468 7.017 17.4468C8.02293 17.4468 8.98766 17.0391 9.69896 16.3133C10.4103 15.5875 10.8099 14.6032 10.8099 13.5768M5.0745 10.9311C5.05193 10.9607 5.02979 10.9906 5.00807 11.0208C4.50413 11.7389 4.25166 12.6092 4.29129 13.4915C4.29338 13.5129 4.29445 13.5345 4.2945 13.556C4.2945 14.2925 4.58122 14.9987 5.09159 15.5195C5.60196 16.0403 6.29416 16.3328 7.01593 16.3328C7.7377 16.3328 8.4299 16.0403 8.94027 15.5195C9.45064 14.9987 9.73736 14.2925 9.73736 13.556L9.74057 13.4926C9.74807 13.4215 9.91522 11.4668 8.16236 10.1375C8.13365 10.1157 8.10472 10.0942 8.07557 10.073L6.957 11.8987C6.90299 11.9867 6.82926 12.0604 6.74187 12.1137C6.65448 12.167 6.55595 12.1983 6.45436 12.2052C6.35278 12.212 6.25106 12.1941 6.15758 12.153C6.06409 12.1119 5.98152 12.0487 5.91665 11.9686L5.0745 10.9311Z" fill="black"/>
<path fill-rule="evenodd" clip-rule="evenodd" d="M6.40071 0.53013C6.42303 0.412757 6.47642 0.303857 6.55508 0.215241C6.63374 0.126624 6.73468 0.0616731 6.84695 0.0274309C6.95922 -0.00681134 7.07853 -0.00903789 7.19195 0.0209928C7.30537 0.0510234 7.40857 0.112165 7.49036 0.197788C7.69821 0.414248 8.09786 0.842795 8.50393 1.33694C8.9025 1.82124 9.3375 2.40393 9.58821 2.92322C9.8325 3.43048 10.0918 4.08642 10.2964 4.63413L11.2489 3.01614C11.302 2.92578 11.3757 2.8498 11.4637 2.79464C11.5517 2.73949 11.6514 2.70677 11.7544 2.69926C11.8574 2.69175 11.9607 2.70968 12.0555 2.75151C12.1503 2.79335 12.2338 2.85787 12.2989 2.93962C13.6521 4.64506 14.3261 6.47185 14.6614 7.86682C14.8296 8.5654 14.9143 9.15902 14.9571 9.58101C14.9787 9.79179 14.993 10.0033 15 10.2151V10.2708C15 14.5312 11.6882 18 7.49786 18C3.30857 18 0 14.5323 0 10.2708C0 9.0978 0.543214 6.3352 2.15036 4.07002C2.21262 3.98249 2.29517 3.91205 2.39063 3.86501C2.48608 3.81797 2.59147 3.79578 2.69738 3.80044C2.80328 3.8051 2.90641 3.83645 2.99754 3.89169C3.08868 3.94694 3.16498 4.02435 3.21964 4.11703L4.30714 5.9635C4.63714 5.43656 5.07857 4.69644 5.41393 4.01317C5.89607 3.02926 6.27857 1.17404 6.40071 0.531224M7.2825 1.5698C7.08857 2.44438 6.76821 3.69285 6.37179 4.50403C5.84464 5.57868 5.085 6.75937 4.82357 7.15622C4.76326 7.24752 4.68137 7.32183 4.58546 7.37228C4.48955 7.42273 4.38273 7.44769 4.27486 7.44486C4.16699 7.44203 4.06156 7.41149 3.96833 7.35607C3.87509 7.30065 3.79705 7.22214 3.74143 7.12779L2.64857 5.27148C1.47429 7.20979 1.07143 9.3886 1.07143 10.2708C1.07143 13.9419 3.915 16.9046 7.49786 16.9046C11.0818 16.9046 13.9286 13.9419 13.9286 10.2708V10.2402C13.9224 10.0573 13.9103 9.87462 13.8921 9.69252C13.837 9.16533 13.7465 8.64262 13.6211 8.1281C13.2816 6.69327 12.678 5.33731 11.8425 4.13233L10.7561 5.97771C10.6932 6.08431 10.6019 6.1705 10.4929 6.22626C10.3839 6.28202 10.2617 6.30505 10.1403 6.29268C10.019 6.28032 9.90362 6.23305 9.80759 6.15639C9.71155 6.07973 9.63882 5.97683 9.59786 5.85964C9.42429 5.36332 8.99893 4.17825 8.62607 3.40643C8.43643 3.01177 8.07321 2.51326 7.68321 2.03989C7.55227 1.88088 7.41868 1.72416 7.2825 1.5698Z" fill="black"/>
</g>
<path d="M30.4551 2.06152V15.3184H28.8145V2.06152H30.4551ZM23.3213 3.02832C25.3135 3.02832 26.7637 4.84473 26.7783 7.70117C26.7637 10.5869 25.3135 12.3887 23.3213 12.3887C21.3145 12.3887 19.8643 10.5869 19.8643 7.70117C19.8643 4.84473 21.3145 3.02832 23.3213 3.02832ZM23.3213 4.49316C22.1934 4.49316 21.4316 5.67969 21.4316 7.70117C21.4316 9.7373 22.1934 10.9238 23.3213 10.9238C24.4346 10.9238 25.1963 9.7373 25.1963 7.70117C25.1963 5.67969 24.4346 4.49316 23.3213 4.49316ZM43.4922 2.07617V11.8467H41.8662V6.96875H39.2002V9.69336H33.0039V2.94043H34.6299V5.0791H37.5889V2.94043H39.2002V5.65039H41.8662V2.07617H43.4922ZM43.7852 13.7217V15.04H34.7617V10.8799H36.417V13.7217H43.7852ZM34.6299 8.4043H37.5889V6.33887H34.6299V8.4043ZM57.4375 9.44434V10.7627H52.1787V15.2891H50.5674V10.7627H45.3672V9.44434H57.4375ZM56.3242 2.80859V4.09766H52.3545C52.4497 5.54785 54.1929 6.93945 56.8076 7.27637L56.2217 8.55078C53.9658 8.23584 52.208 7.20312 51.4023 5.76758C50.5967 7.20312 48.8389 8.23584 46.6123 8.55078L45.9971 7.27637C48.5972 6.93945 50.3403 5.54785 50.4648 4.09766H46.4805V2.80859H56.3242ZM116.939 12.374V13.707H104.84V12.374H110.069V9.32715H111.695V12.374H116.939ZM115.899 3.13086V4.46387H111.725C111.776 6.36816 113.739 8.11865 116.456 8.52148L115.812 9.81055C113.57 9.40039 111.739 8.22119 110.89 6.57324C110.033 8.24316 108.216 9.46631 106.012 9.88379L105.367 8.59473C108.011 8.14795 109.959 6.36816 110.011 4.46387H105.851V3.13086H115.899ZM128.248 2.06152V5.32812H130.094V6.67578H128.248V9.7959H126.622V2.06152H128.248ZM121.305 10.3232V11.4658H126.622V10.3232H128.248V15.1426H119.693V10.3232H121.305ZM121.305 13.8535H126.622V12.7256H121.305V13.8535ZM125.67 3.29199V4.5957H117.818V3.29199H120.938V1.95898H122.564V3.29199H125.67ZM121.744 5.0498C123.663 5.0498 124.967 5.97266 124.981 7.37891C124.967 8.78516 123.663 9.70801 121.744 9.70801C119.811 9.70801 118.492 8.78516 118.492 7.37891C118.492 5.97266 119.811 5.0498 121.744 5.0498ZM121.744 6.25098C120.733 6.25098 120.074 6.67578 120.074 7.37891C120.074 8.09668 120.733 8.50684 121.744 8.50684C122.755 8.50684 123.429 8.09668 123.429 7.37891C123.429 6.67578 122.755 6.25098 121.744 6.25098Z" fill="black"/>
<path d="M61.9346 5.21094V3.39453H70.6211V5.21094H67.3691V14H65.1865V5.21094H61.9346ZM81.2266 8.69727C81.2266 12.1543 79.0732 14.1465 76.2754 14.1465C73.4482 14.1465 71.3096 12.1396 71.3096 8.69727C71.3096 5.24023 73.4482 3.24805 76.2754 3.24805C79.0732 3.24805 81.2266 5.24023 81.2266 8.69727ZM78.9854 8.69727C78.9854 6.42676 77.916 5.19629 76.2754 5.19629C74.6348 5.19629 73.5508 6.42676 73.5508 8.69727C73.5508 10.9678 74.6348 12.1982 76.2754 12.1982C77.916 12.1982 78.9854 10.9678 78.9854 8.69727ZM82.8086 14V3.39453H86.9688C89.3857 3.39453 90.7627 4.87402 90.7627 6.96875C90.7627 9.09277 89.3564 10.543 86.9102 10.543H85.0059V14H82.8086ZM85.0059 8.77051H86.5586C87.8623 8.77051 88.4922 8.03809 88.4922 6.96875C88.4922 5.91406 87.8623 5.19629 86.5586 5.19629H85.0059V8.77051ZM96.0215 14.1465C93.6924 14.1465 92.0225 12.8574 91.9785 11.0117H94.2051C94.249 11.8027 95.0107 12.3301 96.0361 12.3301C97.0908 12.3301 97.8525 11.7295 97.8379 10.8799C97.8525 10.0156 97.0762 9.40039 95.8311 9.40039H94.8496V7.77441H95.8311C96.8711 7.77441 97.6035 7.20312 97.6035 6.36816C97.6035 5.5625 96.9883 5.00586 96.0508 5.00586C95.1133 5.00586 94.3369 5.5332 94.3076 6.33887H92.1982C92.2275 4.50781 93.8828 3.24805 96.0508 3.24805C98.2627 3.24805 99.7422 4.55176 99.7275 6.23633C99.7422 7.42285 98.9072 8.27246 97.7207 8.47754V8.56543C99.2734 8.75586 100.138 9.70801 100.123 11.0264C100.138 12.8428 98.4092 14.1465 96.0215 14.1465Z" fill="#FF6C46"/>
<defs>
<clipPath id="clip0_102_1016">
<rect width="15" height="18" fill="white"/>
</clipPath>
</defs>
</svg>
