<svg width="80" height="80" viewBox="0 0 80 80" fill="none" xmlns="http://www.w3.org/2000/svg">
<path d="M30.0001 43.3333L25.0001 38.3333M53.3334 46.6667L46.6667 40M10.0001 70C10.0001 70 42.7801 58.37 52.2801 48.8667C55.0834 46.062 56.6581 42.2588 56.6581 38.2933C56.6581 34.3279 55.0834 30.5247 52.2801 27.72C50.8923 26.3313 49.2445 25.2297 47.4309 24.4782C45.6173 23.7266 43.6733 23.3397 41.7101 23.3397C39.7469 23.3397 37.8029 23.7266 35.9892 24.4782C34.1756 25.2297 32.5278 26.3313 31.1401 27.72C21.6067 37.2567 9.9834 70.0167 9.9834 70.0167L10.0001 70ZM73.3334 26.6667C73.3334 26.6667 69.5334 20 63.3334 20C58.6467 20 53.3334 26.6667 53.3334 26.6667C53.3334 26.6667 57.1334 33.3333 63.3334 33.3333C69.5334 33.3333 73.3334 26.6667 73.3334 26.6667Z" stroke="black" stroke-width="2" stroke-linecap="round" stroke-linejoin="round"/>
<path d="M53.3332 6.66663C53.3332 6.66663 46.6665 10.4666 46.6665 16.6666C46.6665 22.8666 53.3332 26.6666 53.3332 26.6666C53.3332 26.6666 59.9998 21.41 59.9998 16.6666C59.9998 10.4666 53.3332 6.66663 53.3332 6.66663Z" stroke="black" stroke-width="2" stroke-linecap="round" stroke-linejoin="round"/>
</svg>
