<svg width="123" height="18" viewBox="0 0 123 18" fill="none" xmlns="http://www.w3.org/2000/svg">
<g clip-path="url(#clip0_105_1950)">
<path fill-rule="evenodd" clip-rule="evenodd" d="M10.8107 13.5768C10.8593 12.6317 10.6463 11.6918 10.1959 10.8645C9.74548 10.0372 9.07596 9.35602 8.2639 8.89882C8.11968 8.8137 7.9487 8.78903 7.787 8.83002C7.62531 8.87102 7.48552 8.97446 7.39712 9.11856L6.36426 10.8054L5.50497 9.74498C5.45776 9.68686 5.39926 9.63934 5.33316 9.60542C5.26706 9.5715 5.19479 9.55193 5.12091 9.54792C5.04703 9.54391 4.97313 9.55557 4.90388 9.58215C4.83463 9.60872 4.77152 9.64965 4.71854 9.70235C4.21214 10.2014 3.81665 10.8055 3.55879 11.4739C3.30093 12.1423 3.18673 12.8594 3.2239 13.5768C3.2239 14.6032 3.6235 15.5875 4.3348 16.3133C5.0461 17.0391 6.01083 17.4468 7.01676 17.4468C8.02269 17.4468 8.98741 17.0391 9.69871 16.3133C10.41 15.5875 10.8096 14.6032 10.8096 13.5768M5.07426 10.9311C5.05169 10.9607 5.02955 10.9906 5.00783 11.0208C4.50389 11.7389 4.25141 12.6092 4.29104 13.4915C4.29313 13.5129 4.2942 13.5345 4.29426 13.556C4.29426 14.2925 4.58098 14.9987 5.09135 15.5195C5.60171 16.0403 6.29392 16.3328 7.01569 16.3328C7.73745 16.3328 8.42966 16.0403 8.94003 15.5195C9.45039 14.9987 9.73712 14.2925 9.73712 13.556L9.74033 13.4926C9.74783 13.4215 9.91497 11.4668 8.16212 10.1375C8.1334 10.1157 8.10447 10.0942 8.07533 10.073L6.95676 11.8987C6.90275 11.9867 6.82901 12.0604 6.74163 12.1137C6.65424 12.167 6.5557 12.1983 6.45412 12.2052C6.35254 12.212 6.25082 12.1941 6.15733 12.153C6.06385 12.1119 5.98127 12.0487 5.9164 11.9686L5.07426 10.9311Z" fill="black"/>
<path fill-rule="evenodd" clip-rule="evenodd" d="M6.40071 0.53013C6.42303 0.412757 6.47642 0.303857 6.55508 0.215241C6.63374 0.126624 6.73468 0.0616731 6.84695 0.0274309C6.95922 -0.00681134 7.07853 -0.00903789 7.19195 0.0209928C7.30537 0.0510234 7.40857 0.112165 7.49036 0.197788C7.69821 0.414248 8.09786 0.842795 8.50393 1.33694C8.9025 1.82124 9.3375 2.40393 9.58821 2.92322C9.8325 3.43048 10.0918 4.08642 10.2964 4.63413L11.2489 3.01614C11.302 2.92578 11.3757 2.8498 11.4637 2.79464C11.5517 2.73949 11.6514 2.70677 11.7544 2.69926C11.8574 2.69175 11.9607 2.70968 12.0555 2.75151C12.1503 2.79335 12.2338 2.85787 12.2989 2.93962C13.6521 4.64506 14.3261 6.47185 14.6614 7.86682C14.8296 8.5654 14.9143 9.15902 14.9571 9.58101C14.9787 9.79179 14.993 10.0033 15 10.2151V10.2708C15 14.5312 11.6882 18 7.49786 18C3.30857 18 0 14.5323 0 10.2708C0 9.0978 0.543214 6.3352 2.15036 4.07002C2.21262 3.98249 2.29517 3.91205 2.39063 3.86501C2.48608 3.81797 2.59147 3.79578 2.69738 3.80044C2.80328 3.8051 2.90641 3.83645 2.99754 3.89169C3.08868 3.94694 3.16498 4.02435 3.21964 4.11703L4.30714 5.9635C4.63714 5.43656 5.07857 4.69644 5.41393 4.01317C5.89607 3.02926 6.27857 1.17404 6.40071 0.531224M7.2825 1.5698C7.08857 2.44438 6.76821 3.69285 6.37179 4.50403C5.84464 5.57868 5.085 6.75937 4.82357 7.15622C4.76326 7.24752 4.68137 7.32183 4.58546 7.37228C4.48955 7.42273 4.38273 7.44769 4.27486 7.44486C4.16699 7.44203 4.06156 7.41149 3.96833 7.35607C3.87509 7.30065 3.79705 7.22214 3.74143 7.12779L2.64857 5.27148C1.47429 7.20979 1.07143 9.3886 1.07143 10.2708C1.07143 13.9419 3.915 16.9046 7.49786 16.9046C11.0818 16.9046 13.9286 13.9419 13.9286 10.2708V10.2402C13.9224 10.0573 13.9103 9.87462 13.8921 9.69252C13.837 9.16533 13.7465 8.64262 13.6211 8.1281C13.2816 6.69327 12.678 5.33731 11.8425 4.13233L10.7561 5.97771C10.6932 6.08431 10.6019 6.1705 10.4929 6.22626C10.3839 6.28202 10.2617 6.30505 10.1403 6.29268C10.019 6.28032 9.90362 6.23305 9.80759 6.15639C9.71155 6.07973 9.63882 5.97683 9.59786 5.85964C9.42429 5.36332 8.99893 4.17825 8.62607 3.40643C8.43643 3.01177 8.07321 2.51326 7.68321 2.03989C7.55227 1.88088 7.41868 1.72416 7.2825 1.5698Z" fill="black"/>
</g>
<path d="M30.4551 2.06152V15.3184H28.8145V2.06152H30.4551ZM23.3213 3.02832C25.3135 3.02832 26.7637 4.84473 26.7783 7.70117C26.7637 10.5869 25.3135 12.3887 23.3213 12.3887C21.3145 12.3887 19.8643 10.5869 19.8643 7.70117C19.8643 4.84473 21.3145 3.02832 23.3213 3.02832ZM23.3213 4.49316C22.1934 4.49316 21.4316 5.67969 21.4316 7.70117C21.4316 9.7373 22.1934 10.9238 23.3213 10.9238C24.4346 10.9238 25.1963 9.7373 25.1963 7.70117C25.1963 5.67969 24.4346 4.49316 23.3213 4.49316ZM43.4922 2.07617V11.8467H41.8662V6.96875H39.2002V9.69336H33.0039V2.94043H34.6299V5.0791H37.5889V2.94043H39.2002V5.65039H41.8662V2.07617H43.4922ZM43.7852 13.7217V15.04H34.7617V10.8799H36.417V13.7217H43.7852ZM34.6299 8.4043H37.5889V6.33887H34.6299V8.4043ZM57.4375 9.44434V10.7627H52.1787V15.2891H50.5674V10.7627H45.3672V9.44434H57.4375ZM56.3242 2.80859V4.09766H52.3545C52.4497 5.54785 54.1929 6.93945 56.8076 7.27637L56.2217 8.55078C53.9658 8.23584 52.208 7.20312 51.4023 5.76758C50.5967 7.20312 48.8389 8.23584 46.6123 8.55078L45.9971 7.27637C48.5972 6.93945 50.3403 5.54785 50.4648 4.09766H46.4805V2.80859H56.3242ZM108.81 12.374V13.707H96.71V12.374H101.939V9.32715H103.565V12.374H108.81ZM107.77 3.13086V4.46387H103.595C103.646 6.36816 105.609 8.11865 108.326 8.52148L107.682 9.81055C105.44 9.40039 103.609 8.22119 102.76 6.57324C101.903 8.24316 100.086 9.46631 97.8818 9.88379L97.2373 8.59473C99.8813 8.14795 101.83 6.36816 101.881 4.46387H97.7207V3.13086H107.77ZM120.118 2.06152V5.32812H121.964V6.67578H120.118V9.7959H118.492V2.06152H120.118ZM113.175 10.3232V11.4658H118.492V10.3232H120.118V15.1426H111.563V10.3232H113.175ZM113.175 13.8535H118.492V12.7256H113.175V13.8535ZM117.54 3.29199V4.5957H109.688V3.29199H112.809V1.95898H114.435V3.29199H117.54ZM113.614 5.0498C115.533 5.0498 116.837 5.97266 116.852 7.37891C116.837 8.78516 115.533 9.70801 113.614 9.70801C111.681 9.70801 110.362 8.78516 110.362 7.37891C110.362 5.97266 111.681 5.0498 113.614 5.0498ZM113.614 6.25098C112.604 6.25098 111.944 6.67578 111.944 7.37891C111.944 8.09668 112.604 8.50684 113.614 8.50684C114.625 8.50684 115.299 8.09668 115.299 7.37891C115.299 6.67578 114.625 6.25098 113.614 6.25098Z" fill="black"/>
<path d="M62.3447 14V3.39453H64.542V7.78906H69.1416V3.39453H71.3535V14H69.1416V9.60547H64.542V14H62.3447ZM82.8525 8.69727C82.8525 12.1543 80.6992 14.1465 77.9014 14.1465C75.0742 14.1465 72.9355 12.1396 72.9355 8.69727C72.9355 5.24023 75.0742 3.24805 77.9014 3.24805C80.6992 3.24805 82.8525 5.24023 82.8525 8.69727ZM80.6113 8.69727C80.6113 6.42676 79.542 5.19629 77.9014 5.19629C76.2607 5.19629 75.1768 6.42676 75.1768 8.69727C75.1768 10.9678 76.2607 12.1982 77.9014 12.1982C79.542 12.1982 80.6113 10.9678 80.6113 8.69727ZM83.5557 5.21094V3.39453H92.2422V5.21094H88.9902V14H86.8076V5.21094H83.5557Z" fill="#FF6C46"/>
<defs>
<clipPath id="clip0_105_1950">
<rect width="15" height="18" fill="white"/>
</clipPath>
</defs>
</svg>
