<svg width="60" height="60" viewBox="0 0 60 60" fill="none" xmlns="http://www.w3.org/2000/svg">
<path d="M15 48.75H7.5C6.50544 48.75 5.55161 48.3549 4.84835 47.6516C4.14509 46.9484 3.75 45.9946 3.75 45V37.5H7.5V45H15V48.75ZM3.75 22.5H7.5V30H3.75V22.5ZM48.75 15H45V7.5H37.5V3.75H45C45.9946 3.75 46.9484 4.14509 47.6516 4.84835C48.3549 5.55161 48.75 6.50544 48.75 7.5V15ZM22.5 3.75H30V7.5H22.5V3.75ZM7.5 15H3.75V7.5C3.75 6.50544 4.14509 5.55161 4.84835 4.84835C5.55161 4.14509 6.50544 3.75 7.5 3.75H15V7.5H7.5V15ZM50.625 60C50.1278 59.9999 49.6509 59.8023 49.2994 59.4506L37.7906 47.9419L31.56 57.2906C31.3625 57.5867 31.0849 57.8206 30.7595 57.9647C30.4341 58.1089 30.0744 58.1575 29.7224 58.1048C29.3704 58.0521 29.0407 57.9003 28.7717 57.6671C28.5028 57.434 28.3058 57.1291 28.2037 56.7881L16.9537 19.2881C16.8566 18.9639 16.849 18.6194 16.9318 18.2912C17.0146 17.963 17.1846 17.6633 17.424 17.424C17.6633 17.1846 17.963 17.0146 18.2912 16.9318C18.6194 16.849 18.9639 16.8566 19.2881 16.9537L56.7881 28.2037C57.1291 28.3058 57.434 28.5028 57.6671 28.7717C57.9003 29.0407 58.0521 29.3704 58.1048 29.7224C58.1575 30.0744 58.1089 30.4341 57.9647 30.7595C57.8206 31.0849 57.5867 31.3625 57.2906 31.56L47.9419 37.7906L59.4506 49.2994C59.8021 49.651 59.9996 50.1278 59.9996 50.625C59.9996 51.1222 59.8021 51.599 59.4506 51.9506L51.9506 59.4506C51.5991 59.8023 51.1222 59.9999 50.625 60ZM50.625 55.4738L55.4738 50.625L42.0581 37.2094L51.8944 30.6506L21.5475 21.5475L30.6506 51.8944L37.2094 42.0581L50.625 55.4738Z" fill="black"/>
</svg>
